<svg xmlns="http://www.w3.org/2000/svg" version="1.1" xmlns:xlink="http://www.w3.org/1999/xlink" width="41.27" height="41.27"><svg id="SvgjsSvg1003" xmlns="http://www.w3.org/2000/svg" viewBox="0 0 41.27 41.27">
  <defs>
    <style>
      .cls-1 {
        fill: #494949;
      }
    </style>
  </defs>
  <g id="SvgjsG1002" data-name="Ebene_1">
    <path class="cls-1" d="M41.19,29.72l-3.85-24.12c-.58-3.63-3.99-6.1-7.61-5.52L5.6,3.93C1.98,4.51-.49,7.92.08,11.55l3.85,24.12c.58,3.63,3.99,6.1,7.61,5.52l24.12-3.85c3.63-.58,6.1-3.99,5.52-7.61ZM15.8,32.1c-.91,1.26-2.67,1.54-3.93.63-1.26-.91-1.54-2.67-.63-3.93.91-1.26,2.67-1.54,3.93-.63,1.26.91,1.54,2.67.63,3.93ZM22.92,22.29c-.91,1.26-2.67,1.54-3.93.63s-1.54-2.67-.63-3.93c.91-1.26,2.67-1.54,3.93-.63,1.26.91,1.54,2.67.63,3.93ZM30.03,12.47c-.91,1.26-2.67,1.54-3.93.63-1.26-.91-1.54-2.67-.63-3.93.91-1.26,2.67-1.54,3.93-.63,1.26.91,1.54,2.67.63,3.93Z"></path>
  </g>
</svg><style>@media (prefers-color-scheme: light) { :root { filter: none; } }
@media (prefers-color-scheme: dark) { :root { filter: none; } }
</style></svg>